<?xml version="1.0" encoding="utf-8"?>
<!-- Generator: Adobe Illustrator 18.0.0, SVG Export Plug-In . SVG Version: 6.00 Build 0)  -->
<!DOCTYPE svg PUBLIC "-//W3C//DTD SVG 1.1 Basic//EN" "http://www.w3.org/Graphics/SVG/1.1/DTD/svg11-basic.dtd">
<svg version="1.1" baseProfile="basic" id="Arrow_1_"
	 xmlns="http://www.w3.org/2000/svg" xmlns:xlink="http://www.w3.org/1999/xlink" x="0px" y="0px" width="500px" height="500px"
	 viewBox="0 0 500 500" xml:space="preserve">
<path fill="#404041" d="M492.1,127.3c-12-33.6-36.4-60.4-68.7-75.6c-18-8.5-37.1-12.8-56.8-12.8c-46.8,0-90.7,24.8-114.6,64.9
	c-0.5,0.5-0.7,0.8-1,1.8l9.5,4.8l-11.9-5.7c0,0,0-0.1,0-0.1c-0.1-0.1-0.1-0.3-0.2-0.4c-23.9-40.2-67.9-65.2-114.8-65.2
	c-19.7,0-38.9,4.3-56.8,12.8C10,83-18.7,162.8,12.7,229.4c22.8,48.4,139.5,158.6,207,220c8.3,7.6,19.1,11.8,30.3,11.8
	c11.1,0,21.8-4.1,30.2-11.7c67.6-61.4,184.3-171.7,207.1-220.1C502.4,197.1,504.1,160.9,492.1,127.3z M467.9,220.3
	c-15.2,32.4-90.8,112.2-202.1,213.3c-8.8,7.9-23.1,7.9-31.8,0C122.7,332.3,47.2,252.6,32,220.3c-26.3-56-2.3-123,53.7-149.3
	c15.1-7.1,31.2-10.7,47.7-10.7c39.5,0,76.4,21,96.5,54.8c0,0.1,0.1,0.1,0.1,0.2h0c0.1,0.3,0.3,0.6,0.5,0.9
	c8.5,13.4,30.2,13.8,39.2-0.6c0,0,0-0.1,0.1-0.1c0.1-0.1,0.2-0.2,0.2-0.3c20.1-33.8,57.1-54.8,96.5-54.8c16.5,0,32.6,3.6,47.7,10.7
	c27.1,12.8,47.6,35.3,57.8,63.5C482.1,162.7,480.7,193.2,467.9,220.3z"/>
</svg>
